<svg width="18" height="20" viewBox="0 0 18 20" fill="none" xmlns="http://www.w3.org/2000/svg">
<path fill-rule="evenodd" clip-rule="evenodd" d="M0 7C0 3.27208 3.02208 0.25 6.75 0.25H8.75C9.16421 0.25 9.5 0.585786 9.5 1C9.5 1.41421 9.16421 1.75 8.75 1.75H6.75C3.85051 1.75 1.5 4.1005 1.5 7V13C1.5 15.8995 3.85051 18.25 6.75 18.25H8.75C9.16421 18.25 9.5 18.5858 9.5 19C9.5 19.4142 9.16421 19.75 8.75 19.75H6.75C3.02208 19.75 0 16.7279 0 13V7Z" fill="#F23218"/>
<path fill-rule="evenodd" clip-rule="evenodd" d="M12.2336 4.44329C12.5411 4.16574 13.0153 4.18998 13.2929 4.49744L17.8067 9.49757C18.0644 9.78306 18.0644 10.2172 17.8067 10.5027L13.2929 15.5026C13.0153 15.81 12.5411 15.8343 12.2336 15.5567C11.9262 15.2791 11.9019 14.8049 12.1795 14.4974L15.5626 10.75H5.25C4.83579 10.75 4.5 10.4142 4.5 10C4.5 9.5858 4.83579 9.25002 5.25 9.25002H15.5624L12.1795 5.50257C11.9019 5.19511 11.9262 4.72085 12.2336 4.44329Z" fill="#F23218"/>
</svg>
