<svg width="22" height="22" viewBox="0 0 22 22" fill="none" xmlns="http://www.w3.org/2000/svg">
<path fill-rule="evenodd" clip-rule="evenodd" d="M15.4165 2.75173C14.6915 2.9435 14.6915 2.94368 14.6915 2.94387L14.6919 2.94519L14.6925 2.94741L14.6941 2.95342L14.6992 2.97154C14.7033 2.98628 14.7091 3.00628 14.7166 3.0311C14.7315 3.0807 14.7533 3.14973 14.7825 3.23454C14.8408 3.4038 14.9296 3.638 15.054 3.90745C15.3002 4.44047 15.6999 5.1413 16.3053 5.74647C16.9118 6.35269 17.6035 6.74181 18.1299 6.97808C18.3956 7.09734 18.6259 7.18069 18.7926 7.23495C18.8761 7.26213 18.9442 7.28218 18.9933 7.2959C19.0178 7.30276 19.0377 7.30806 19.0525 7.31188L19.0707 7.31653L19.0769 7.31805L19.0792 7.31862L19.0806 7.31895C19.0808 7.319 19.081 7.31905 19.2563 6.58984L19.0806 7.31895C19.4833 7.4158 19.8887 7.16793 19.9856 6.7652C20.0822 6.36321 19.8354 5.95898 19.4339 5.86117L19.4288 5.85985C19.4228 5.85831 19.4121 5.85546 19.3969 5.85123C19.3666 5.84276 19.3188 5.82878 19.2569 5.80861C19.1326 5.76816 18.9533 5.70351 18.7442 5.60963C18.3208 5.41961 17.8022 5.12182 17.3657 4.68557C16.9282 4.24827 16.6183 3.71696 16.4158 3.27845C16.3159 3.06213 16.2454 2.87572 16.2006 2.74581C16.1783 2.68104 16.1626 2.63084 16.1529 2.59861C16.148 2.58252 16.1447 2.57096 16.1428 2.56436L16.1411 2.55826C16.141 2.55788 16.1411 2.55798 16.1411 2.55826L16.1414 2.5593C16.0352 2.15925 15.625 1.9208 15.2247 2.02666C14.8243 2.13257 14.5856 2.54343 14.6915 2.94387L15.4165 2.75173ZM16.1414 2.5593C16.1414 2.55928 16.1414 2.55931 16.1414 2.5593V2.5593Z" fill="#1E1E1E"/>
<path fill-rule="evenodd" clip-rule="evenodd" d="M15.0222 1.967C16.3427 0.310955 18.844 0.105139 20.3678 1.62826C21.9152 3.17498 21.676 5.71872 19.9783 7.03002C18.7532 7.97627 17.3689 9.10913 16.3787 10.1003C15.1389 11.3412 13.761 12.9574 12.7842 14.1457C11.8407 15.2934 10.5025 16.0733 9.01281 16.278L6.88231 16.5708C6.07199 16.6821 5.37483 15.9981 5.47076 15.1858L5.72503 13.0328C5.90557 11.5041 6.69094 10.1242 7.86521 9.15672C9.05379 8.17742 10.6525 6.81141 11.8697 5.59365C12.8791 4.58379 14.0496 3.18664 15.0222 1.967ZM19.3073 2.68916C18.442 1.82424 16.9804 1.91715 16.195 2.90218C15.2146 4.13168 14.0016 5.58262 12.9306 6.65407C11.6605 7.92476 10.0162 9.328 8.81904 10.3144C7.92939 11.0474 7.34779 12.0816 7.21468 13.2087L6.99832 15.0408L8.8086 14.792C9.90679 14.6411 10.9102 14.0632 11.6255 13.1931C12.6097 11.9959 14.0248 10.3341 15.3175 9.04015C16.3781 7.97858 17.8246 6.79819 19.0613 5.84291C20.0773 5.05816 20.185 3.56647 19.3073 2.68916Z" fill="#1E1E1E"/>
<path fill-rule="evenodd" clip-rule="evenodd" d="M5.34619 2.40356C3.55127 2.40356 2.09619 3.85864 2.09619 5.65356V16.6536C2.09619 18.4485 3.55127 19.9036 5.34619 19.9036H16.3462C18.1411 19.9036 19.5962 18.4485 19.5962 16.6536V11.1536C19.5962 10.7394 19.932 10.4036 20.3462 10.4036C20.7604 10.4036 21.0962 10.7394 21.0962 11.1536V16.6536C21.0962 19.2769 18.9695 21.4036 16.3462 21.4036H5.34619C2.72284 21.4036 0.596191 19.2769 0.596191 16.6536V5.65356C0.596191 3.03021 2.72284 0.903564 5.34619 0.903564H10.8462C11.2604 0.903564 11.5962 1.23935 11.5962 1.65356C11.5962 2.06778 11.2604 2.40356 10.8462 2.40356H5.34619Z" fill="#1E1E1E"/>
</svg>
