<svg width="22" height="22" viewBox="0 0 22 22" fill="none" xmlns="http://www.w3.org/2000/svg">
<path d="M11.586 16.1379V5.93102C11.586 5.79309 11.517 5.72412 11.3791 5.72412C8.41355 5.72412 6.06873 8.06895 6.06873 11.0345C6.06873 14 8.41355 16.3448 11.3791 16.3448C11.448 16.4138 11.586 16.2758 11.586 16.1379Z" fill="#5C5F61"/>
<path d="M16.9655 10.8965C16.8276 8.34482 15.0345 6.27585 12.5517 5.86206C12.4138 5.86206 12.3448 5.93103 12.2759 6.06896C12.2759 6.13792 12.2759 6.20689 12.3448 6.27585C13.7931 7.3793 14.6897 9.10344 14.6897 10.9655C14.8966 12.9655 14 14.8965 12.3448 16.069C12.2759 16.1379 12.2069 16.2759 12.2759 16.3448C12.3448 16.4138 12.4138 16.4138 12.4828 16.4138C12.4828 16.4138 12.4828 16.4138 12.5517 16.4138C15.1724 15.931 17.0345 13.5862 16.9655 10.8965Z" fill="#5C5F61"/>
<path d="M11.3099 4.55172C11.6547 4.55172 11.8616 4.27586 11.8616 4V0.551724C11.8616 0.206896 11.5858 0 11.3099 0C10.9651 0 10.7582 0.275862 10.7582 0.551724V3.93103C10.7582 4.27586 11.034 4.55172 11.3099 4.55172Z" fill="#5C5F61"/>
<path d="M5.93066 6.41377C6.13756 6.62066 6.48239 6.62066 6.75825 6.41377C6.96515 6.20687 6.96515 5.86204 6.75825 5.58618L4.41342 3.24135C4.20653 3.03446 3.8617 3.03446 3.58584 3.24135C3.37894 3.44825 3.37894 3.79308 3.58584 4.06894L5.93066 6.41377Z" fill="#5C5F61"/>
<path d="M11.3099 17.5173C10.9651 17.5173 10.7582 17.7932 10.7582 18.0691V21.4484C10.7582 21.7932 11.034 22.0001 11.3099 22.0001C11.5858 22.0001 11.8616 21.7242 11.8616 21.4484V18.0691C11.9306 17.7932 11.6547 17.5173 11.3099 17.5173Z" fill="#5C5F61"/>
<path d="M6.34446 15.4482C6.20653 15.4482 6.06859 15.5172 5.93066 15.5862L3.58584 17.931C3.37894 18.1379 3.37894 18.4827 3.58584 18.7586C3.79273 18.9655 4.13756 18.9655 4.41342 18.7586L6.75825 16.4138C6.96515 16.2069 6.96515 15.862 6.75825 15.5862C6.62032 15.5172 6.48239 15.4482 6.34446 15.4482Z" fill="#5C5F61"/>
<path d="M4.82746 11.0344C4.82746 10.6896 4.5516 10.4827 4.27574 10.4827H0.551602C0.206775 10.4827 -0.00012207 10.7585 -0.00012207 11.1034C-0.00012207 11.3792 0.27574 11.6551 0.551602 11.6551H4.20677C4.5516 11.5861 4.82746 11.3792 4.82746 11.0344Z" fill="#5C5F61"/>
<path d="M18.2755 4.55167C17.5858 4.34478 17.4479 4.20685 17.31 3.31029C17.31 3.24133 17.241 3.17236 17.172 3.17236C17.1031 3.17236 17.0341 3.24133 17.0341 3.31029C16.8962 4.20685 16.7582 4.34478 16.0686 4.55167C15.9996 4.55167 15.9307 4.6896 15.9307 4.75857C15.9307 4.82754 15.9996 4.82754 16.0686 4.8965C16.7582 5.1034 16.8962 5.24133 17.0341 6.13788C17.0341 6.20685 17.1031 6.27581 17.172 6.27581C17.241 6.27581 17.31 6.20685 17.31 6.13788C17.4479 5.24133 17.5858 5.1034 18.2755 4.8965C18.3445 4.8965 18.4134 4.75857 18.4134 4.6896C18.3445 4.55167 18.3445 4.55167 18.2755 4.55167Z" fill="#5C5F61"/>
<path d="M18.2755 17.5172C17.5858 17.3104 17.4479 17.1724 17.31 16.2759C17.31 16.2069 17.241 16.1379 17.172 16.1379C17.1031 16.1379 17.0341 16.2069 17.0341 16.2759C16.8962 17.1724 16.7582 17.3104 16.0686 17.5172C15.9996 17.5172 15.9307 17.6552 15.9307 17.7241C15.9307 17.7931 15.9996 17.7931 16.0686 17.8621C16.7582 18.069 16.8962 18.2069 17.0341 19.1035C17.0341 19.1724 17.1031 19.2414 17.172 19.2414C17.241 19.2414 17.31 19.1724 17.31 19.1035C17.4479 18.2069 17.5858 18.069 18.2755 17.8621C18.3445 17.8621 18.4134 17.7931 18.4134 17.7241C18.4134 17.5862 18.3445 17.5172 18.2755 17.5172Z" fill="#5C5F61"/>
<path d="M21.5173 10.8276C20.5517 10.5518 20.4138 10.2759 20.2069 9.10351C20.2069 9.03454 20.138 8.96558 20.069 8.96558C20 8.96558 19.9311 9.03454 19.9311 9.10351C19.7242 10.2759 19.5173 10.4828 18.5517 10.7587C18.4828 10.7587 18.4138 10.8276 18.4138 10.9656C18.4138 11.0345 18.4828 11.0345 18.4828 11.1035C19.4483 11.3794 19.5862 11.6552 19.7931 12.8276C19.7931 12.8966 19.8621 12.9656 19.9311 12.9656C20 12.9656 20.069 12.8966 20.069 12.8276C20.2759 11.6552 20.4828 11.4483 21.4483 11.1725C21.5173 11.1725 21.5862 11.1035 21.5862 10.9656C21.5862 10.8966 21.5862 10.8276 21.5173 10.8276Z" fill="#5C5F61"/>
</svg>
