<svg width="19" height="21" viewBox="0 0 19 21" fill="none" xmlns="http://www.w3.org/2000/svg">
<g clip-path="url(#clip0_1_213)">
<path d="M14.118 11.2153H9.49995V6.59721M3.03467 2.44096L4.88189 1.05554M15.9652 2.44096L14.118 1.05554" stroke="#747474" stroke-width="1.5" stroke-linecap="round" stroke-linejoin="round"/>
<path d="M9.5 19.5277C10.5916 19.5277 11.6725 19.3127 12.6811 18.895C13.6896 18.4772 14.6059 17.8649 15.3778 17.093C16.1497 16.3211 16.762 15.4048 17.1797 14.3963C17.5975 13.3877 17.8125 12.3068 17.8125 11.2152C17.8125 10.1236 17.5975 9.04267 17.1797 8.03415C16.762 7.02563 16.1497 6.10927 15.3778 5.33738C14.6059 4.5655 13.6896 3.9532 12.6811 3.53546C11.6725 3.11772 10.5916 2.90271 9.5 2.90271C7.29539 2.90271 5.18107 3.77849 3.62217 5.33738C2.06328 6.89628 1.1875 9.0106 1.1875 11.2152C1.1875 13.4198 2.06328 15.5341 3.62217 17.093C5.18107 18.6519 7.29539 19.5277 9.5 19.5277V19.5277Z" stroke="#747474" stroke-width="1.5" stroke-linecap="round" stroke-linejoin="round"/>
</g>
<defs>
<clipPath id="clip0_1_213">
<rect width="19" height="20.5833" fill="white"/>
</clipPath>
</defs>
</svg>
