<svg width="17" height="15" viewBox="0 0 17 15" fill="none" xmlns="http://www.w3.org/2000/svg">
<path d="M15.1025 2.2625L14.0975 1.8425V8.615L15.92 4.22C16.2275 3.455 15.875 2.5775 15.1025 2.2625ZM0.477504 5.0375L4.1975 14C4.30705 14.2727 4.4939 14.5074 4.73508 14.6753C4.97626 14.8432 5.26125 14.9369 5.55501 14.945C5.75001 14.945 5.95251 14.9075 6.14751 14.825L11.675 12.5375C12.2375 12.305 12.5825 11.75 12.5975 11.195C12.605 11 12.5675 10.7825 12.5 10.5875L8.75001 1.625C8.644 1.35051 8.45782 1.1143 8.21571 0.947087C7.97359 0.779879 7.68674 0.689426 7.39251 0.6875C7.19751 0.6875 7.00251 0.7325 6.81501 0.8L1.295 3.0875C0.928077 3.23776 0.635838 3.52758 0.482539 3.89325C0.329239 4.25892 0.327429 4.6705 0.477504 5.0375ZM12.59 2.1875C12.59 1.78968 12.432 1.40814 12.1507 1.12684C11.8694 0.845535 11.4878 0.6875 11.09 0.6875H10.0025L12.59 6.9425" fill="#747474"/>
</svg>
