<svg width="19" height="19" viewBox="0 0 19 19" fill="none" xmlns="http://www.w3.org/2000/svg">
<path d="M9.5 17.5277C10.5916 17.5277 11.6725 17.3127 12.6811 16.895C13.6896 16.4772 14.6059 15.8649 15.3778 15.093C16.1497 14.3211 16.762 13.4048 17.1797 12.3963C17.5975 11.3877 17.8125 10.3068 17.8125 9.21521C17.8125 8.1236 17.5975 7.04267 17.1797 6.03415C16.762 5.02563 16.1497 4.10927 15.3778 3.33738C14.6059 2.5655 13.6896 1.9532 12.6811 1.53546C11.6725 1.11772 10.5916 0.90271 9.5 0.90271C7.29539 0.90271 5.18107 1.77849 3.62217 3.33738C2.06328 4.89628 1.1875 7.0106 1.1875 9.21521C1.1875 11.4198 2.06328 13.5341 3.62217 15.093C5.18107 16.6519 7.29539 17.5277 9.5 17.5277V17.5277Z" stroke="#747474" stroke-width="1.5" stroke-linecap="round" stroke-linejoin="round"/>
</svg>
