<svg width="20" height="22" viewBox="0 0 20 22" fill="none" xmlns="http://www.w3.org/2000/svg">
<path fill-rule="evenodd" clip-rule="evenodd" d="M0.25 9.74097C0.25 4.63233 4.39137 0.490967 9.5 0.490967H10.5C15.6086 0.490967 19.75 4.63233 19.75 9.74097V15.241C19.75 16.7598 18.5188 17.991 17 17.991H15.5C13.7051 17.991 12.25 16.5359 12.25 14.741V13.741C12.25 11.946 13.7051 10.491 15.5 10.491H18.25V9.74097C18.25 5.46076 14.7802 1.99097 10.5 1.99097H9.5C5.21979 1.99097 1.75 5.46076 1.75 9.74097V10.491H4.5C6.29493 10.491 7.75 11.946 7.75 13.741V14.741C7.75 16.5359 6.29493 17.991 4.5 17.991H3C1.48122 17.991 0.25 16.7598 0.25 15.241V9.74097ZM1.75 11.991V15.241C1.75 15.9313 2.30964 16.491 3 16.491H4.5C5.4665 16.491 6.25 15.7075 6.25 14.741V13.741C6.25 12.7745 5.4665 11.991 4.5 11.991H1.75ZM18.25 11.991H15.5C14.5335 11.991 13.75 12.7745 13.75 13.741V14.741C13.75 15.7075 14.5335 16.491 15.5 16.491H17C17.6904 16.491 18.25 15.9313 18.25 15.241V11.991Z" fill="#5C5F61"/>
<path fill-rule="evenodd" clip-rule="evenodd" d="M19 13.14C19.4142 13.14 19.75 13.4758 19.75 13.89V18.759C19.75 20.2778 18.5188 21.509 17 21.509H12.2734C11.8592 21.509 11.5234 21.1732 11.5234 20.759C11.5234 20.3448 11.8592 20.009 12.2734 20.009H17C17.6903 20.009 18.25 19.4493 18.25 18.759V13.89C18.25 13.4758 18.5858 13.14 19 13.14Z" fill="#5C5F61"/>
</svg>
