<svg width="4" height="14" viewBox="0 0 4 14" fill="none" xmlns="http://www.w3.org/2000/svg">
<path d="M2 3.5C1.77019 3.5 1.54262 3.45474 1.3303 3.36679C1.11798 3.27884 0.925065 3.14994 0.762563 2.98744C0.60006 2.82493 0.471157 2.63202 0.383211 2.4197C0.295265 2.20738 0.25 1.97981 0.25 1.75C0.25 1.52019 0.295265 1.29262 0.383211 1.0803C0.471157 0.867984 0.60006 0.675066 0.762563 0.512563C0.925065 0.350061 1.11798 0.221157 1.3303 0.133211C1.54262 0.0452652 1.77019 -3.42448e-09 2 0C2.46413 6.91606e-09 2.90925 0.184375 3.23744 0.512563C3.56563 0.840752 3.75 1.28587 3.75 1.75C3.75 2.21413 3.56563 2.65925 3.23744 2.98744C2.90925 3.31563 2.46413 3.5 2 3.5ZM2 14C1.53587 14 1.09075 13.8156 0.762563 13.4874C0.434374 13.1592 0.25 12.7141 0.25 12.25C0.25 11.7859 0.434374 11.3408 0.762563 11.0126C1.09075 10.6844 1.53587 10.5 2 10.5C2.46413 10.5 2.90925 10.6844 3.23744 11.0126C3.56563 11.3408 3.75 11.7859 3.75 12.25C3.75 12.7141 3.56563 13.1592 3.23744 13.4874C2.90925 13.8156 2.46413 14 2 14ZM0.25 7C0.25 7.22981 0.295265 7.45738 0.383211 7.6697C0.471157 7.88202 0.60006 8.07493 0.762563 8.23744C0.925065 8.39994 1.11798 8.52884 1.3303 8.61679C1.54262 8.70473 1.77019 8.75 2 8.75C2.22981 8.75 2.45738 8.70473 2.6697 8.61679C2.88202 8.52884 3.07493 8.39994 3.23744 8.23744C3.39994 8.07493 3.52884 7.88202 3.61679 7.6697C3.70473 7.45738 3.75 7.22981 3.75 7C3.75 6.53587 3.56563 6.09075 3.23744 5.76256C2.90925 5.43437 2.46413 5.25 2 5.25C1.53587 5.25 1.09075 5.43437 0.762563 5.76256C0.434374 6.09075 0.25 6.53587 0.25 7Z" fill="#747474"/>
</svg>
