<svg width="18" height="18" viewBox="0 0 18 18" fill="none" xmlns="http://www.w3.org/2000/svg">
<path d="M0.948649 17.22C0.817555 17.2198 0.687942 17.1923 0.568052 17.1392C0.448163 17.0862 0.34062 17.0087 0.252262 16.9119C0.162307 16.8158 0.0936649 16.7018 0.0508378 16.5774C0.00801066 16.453 -0.00803418 16.3209 0.00375511 16.1898L0.235254 13.6435L10.9296 2.95009L14.2717 6.29215L3.58018 16.9846L1.03463 17.2162C1.00605 17.2188 0.977355 17.2201 0.948649 17.22ZM14.9388 5.62392L11.5976 2.28187L13.6017 0.277201C13.6895 0.189324 13.7937 0.11961 13.9084 0.072046C14.0231 0.0244819 14.1461 0 14.2702 0C14.3944 0 14.5174 0.0244819 14.6321 0.072046C14.7468 0.11961 14.851 0.189324 14.9388 0.277201L16.9429 2.28187C17.0307 2.36965 17.1004 2.47389 17.148 2.58863C17.1955 2.70337 17.22 2.82635 17.22 2.95056C17.22 3.07477 17.1955 3.19776 17.148 3.3125C17.1004 3.42724 17.0307 3.53148 16.9429 3.61926L14.9397 5.62298L14.9388 5.62392Z" fill="white"/>
</svg>
