<svg width="20" height="20" viewBox="0 0 20 20" fill="none" xmlns="http://www.w3.org/2000/svg">
<path d="M14.8058 0.492175C14.9373 0.546505 15.0496 0.63861 15.1287 0.756831C15.2078 0.875052 15.25 1.01407 15.25 1.1563V4.75005H18.8438C18.9861 4.7498 19.1253 4.79181 19.2437 4.87077C19.3622 4.94973 19.4545 5.06208 19.509 5.19357C19.5635 5.32506 19.5777 5.46978 19.5499 5.60937C19.5221 5.74897 19.4534 5.87715 19.3526 5.97768L16.4776 8.85268C16.4108 8.91938 16.3314 8.97225 16.2441 9.00826C16.1568 9.04427 16.0632 9.06272 15.9688 9.06255H11.9538L10.8901 10.1277C10.9469 10.3408 10.954 10.5642 10.9108 10.7805C10.8676 10.9967 10.7753 11.2002 10.6409 11.3751C10.5066 11.55 10.3338 11.6917 10.136 11.7892C9.93816 11.8868 9.72056 11.9375 9.5 11.9376C9.11876 11.9376 8.75312 11.7861 8.48354 11.5165C8.21395 11.2469 8.0625 10.8813 8.0625 10.5001L8.06394 10.4339C8.0738 10.2192 8.13169 10.0094 8.23335 9.82001C8.33501 9.63061 8.47786 9.46642 8.65136 9.33953C8.82487 9.21264 9.02463 9.12628 9.23593 9.0868C9.44723 9.04733 9.6647 9.05574 9.87232 9.11143L10.9375 8.04624V4.0313C10.9373 3.93685 10.9558 3.84329 10.9918 3.75598C11.0278 3.66866 11.0807 3.5893 11.1474 3.52242L14.0224 0.647425C14.123 0.546969 14.2511 0.478601 14.3905 0.450966C14.53 0.423332 14.6745 0.437672 14.8058 0.492175ZM15.6712 7.62505L17.1087 6.18755H14.5313C14.3406 6.18755 14.1578 6.11182 14.023 5.97703C13.8882 5.84224 13.8125 5.65942 13.8125 5.4688V2.89136L12.375 4.32886V7.62505H15.6712ZM18.0459 9.31555C18.294 11.1054 17.9736 12.928 17.1299 14.526C16.2863 16.124 14.9622 17.4167 13.3443 18.2215C11.7265 19.0264 9.89669 19.3028 8.11329 19.0118C6.3299 18.7207 4.68295 17.8769 3.40497 16.5994C2.12698 15.3219 1.2825 13.6753 0.99074 11.892C0.698981 10.1087 0.974679 8.27882 1.77892 6.66066C2.58315 5.0425 3.87531 3.71781 5.47296 2.87358C7.07062 2.02935 8.89308 1.70823 10.6831 1.95555L10.1325 2.50611C9.90464 2.73399 9.73075 3.01005 9.62363 3.31399L9.5 3.31255C8.07323 3.31276 6.6788 3.73761 5.49429 4.53298C4.30979 5.32836 3.3888 6.45827 2.84861 7.77883C2.30843 9.09939 2.1735 10.5508 2.461 11.9484C2.7485 13.3459 3.44542 14.6262 4.46301 15.6263C5.48061 16.6264 6.77283 17.301 8.17511 17.5642C9.5774 17.8274 11.0263 17.6673 12.3373 17.1043C13.6483 16.5413 14.762 15.6008 15.5367 14.4027C16.3115 13.2046 16.712 11.803 16.6875 10.3764C16.9903 10.2693 17.2653 10.096 17.4925 9.86899L18.0445 9.31555H18.0459ZM9.5 5.4688C8.50492 5.4688 7.53218 5.76388 6.70479 6.31672C5.87741 6.86956 5.23254 7.65533 4.85174 8.57467C4.47093 9.49401 4.3713 10.5056 4.56543 11.4816C4.75956 12.4576 5.23874 13.354 5.94237 14.0577C6.64601 14.7613 7.54249 15.2405 8.51846 15.4346C9.49442 15.6288 10.506 15.5291 11.4254 15.1483C12.3447 14.7675 13.1305 14.1226 13.6833 13.2953C14.2362 12.4679 14.5313 11.4951 14.5313 10.5001H13.0938C13.0938 11.2108 12.883 11.9056 12.4881 12.4966C12.0932 13.0876 11.5319 13.5482 10.8753 13.8202C10.2186 14.0922 9.49602 14.1634 8.7989 14.0247C8.10178 13.8861 7.46143 13.5438 6.95884 13.0412C6.45624 12.5386 6.11397 11.8983 5.97531 11.2012C5.83664 10.504 5.90781 9.78145 6.17981 9.12478C6.45181 8.46811 6.91243 7.90684 7.50342 7.51196C8.09441 7.11707 8.78923 6.9063 9.5 6.9063V5.4688Z" fill="#747474"/>
</svg>
