<svg width="19" height="19" viewBox="0 0 19 19" fill="none" xmlns="http://www.w3.org/2000/svg">
<path d="M18.1535 17.1433L14.3396 13.3395C15.6856 11.7375 16.361 9.67792 16.2249 7.59024C16.0888 5.50255 15.1517 3.54798 13.609 2.13419C12.0664 0.720395 10.0373 -0.0434684 7.9449 0.00191215C5.85253 0.0472927 3.85847 0.898413 2.3786 2.37776C0.898731 3.85711 0.0473094 5.85047 0.00191283 7.94209C-0.0434837 10.0337 0.72065 12.0621 2.13494 13.6042C3.54924 15.1463 5.50449 16.0831 7.59292 16.2192C9.68134 16.3552 11.7417 15.6801 13.3442 14.3345L17.1493 18.147C17.284 18.2772 17.464 18.35 17.6514 18.35C17.8387 18.35 18.0188 18.2772 18.1535 18.147C18.2858 18.0135 18.36 17.8331 18.36 17.6452C18.36 17.4572 18.2858 17.2768 18.1535 17.1433ZM1.44452 8.13579C1.44452 6.81228 1.83713 5.5185 2.57269 4.41804C3.30825 3.31758 4.35373 2.45988 5.57693 1.95339C6.80012 1.44691 8.14609 1.31439 9.44463 1.57259C10.7432 1.8308 11.9359 2.46813 12.8721 3.40399C13.8083 4.33985 14.4459 5.53221 14.7042 6.83029C14.9625 8.12837 14.8299 9.47386 14.3232 10.6966C13.8166 11.9194 12.9586 12.9645 11.8577 13.6998C10.7569 14.4351 9.46264 14.8276 8.13867 14.8276C6.36398 14.8252 4.66266 14.1195 3.40777 12.865C2.15288 11.6106 1.44685 9.90984 1.44452 8.13579Z" fill="black" fill-opacity="0.6"/>
</svg>
