<svg width="21" height="23" viewBox="0 0 21 23" fill="none" xmlns="http://www.w3.org/2000/svg">
<path d="M8.05955 3.76167H12.8005C12.8005 3.13813 12.5507 2.54013 12.1062 2.09923C11.6616 1.65832 11.0587 1.41062 10.43 1.41062C9.80132 1.41062 9.19838 1.65832 8.75384 2.09923C8.30929 2.54013 8.05955 3.13813 8.05955 3.76167ZM6.63727 3.76167C6.63727 2.76401 7.03686 1.80722 7.74814 1.10177C8.45941 0.396317 9.42411 0 10.43 0C11.4359 0 12.4006 0.396317 13.1119 1.10177C13.8231 1.80722 14.2227 2.76401 14.2227 3.76167H20.1489C20.3375 3.76167 20.5184 3.83598 20.6517 3.96825C20.7851 4.10052 20.86 4.27992 20.86 4.46698C20.86 4.65404 20.7851 4.83344 20.6517 4.96571C20.5184 5.09798 20.3375 5.17229 20.1489 5.17229H18.9067L17.7528 18.9052C17.6689 19.9042 17.2094 20.8355 16.4656 21.5143C15.7219 22.1931 14.748 22.5699 13.7373 22.57H7.12274C6.11197 22.5699 5.13814 22.1931 4.39435 21.5143C3.65057 20.8355 3.19115 19.9042 3.10719 18.9052L1.95325 5.17229H0.711136C0.522531 5.17229 0.341651 5.09798 0.208287 4.96571C0.074923 4.83344 0 4.65404 0 4.46698C0 4.27992 0.074923 4.10052 0.208287 3.96825C0.341651 3.83598 0.522531 3.76167 0.711136 3.76167H6.63727ZM4.52472 18.7876C4.57895 19.4341 4.87614 20.0367 5.35737 20.476C5.83859 20.9153 6.4687 21.1592 7.12274 21.1594H13.7373C14.3913 21.1592 15.0214 20.9153 15.5026 20.476C15.9839 20.0367 16.2811 19.4341 16.3353 18.7876L17.4807 5.17229H3.38027L4.52472 18.7876ZM8.29659 8.46375C8.4852 8.46375 8.66608 8.53806 8.79944 8.67033C8.9328 8.8026 9.00773 8.982 9.00773 9.16906V17.1626C9.00773 17.3497 8.9328 17.5291 8.79944 17.6613C8.66608 17.7936 8.4852 17.8679 8.29659 17.8679C8.10799 17.8679 7.92711 17.7936 7.79374 17.6613C7.66038 17.5291 7.58545 17.3497 7.58545 17.1626V9.16906C7.58545 8.982 7.66038 8.8026 7.79374 8.67033C7.92711 8.53806 8.10799 8.46375 8.29659 8.46375ZM13.2745 9.16906C13.2745 8.982 13.1996 8.8026 13.0663 8.67033C12.9329 8.53806 12.752 8.46375 12.5634 8.46375C12.3748 8.46375 12.1939 8.53806 12.0606 8.67033C11.9272 8.8026 11.8523 8.982 11.8523 9.16906V17.1626C11.8523 17.3497 11.9272 17.5291 12.0606 17.6613C12.1939 17.7936 12.3748 17.8679 12.5634 17.8679C12.752 17.8679 12.9329 17.7936 13.0663 17.6613C13.1996 17.5291 13.2745 17.3497 13.2745 17.1626V9.16906Z" fill="#FF7272"/>
</svg>
