<svg width="19" height="19" viewBox="0 0 19 19" fill="none" xmlns="http://www.w3.org/2000/svg">
<path d="M18.0822 6.50143C17.9049 5.92658 17.6703 5.371 17.3819 4.84304C16.9555 4.05944 16.4194 3.3408 15.7897 2.70893C14.496 1.41539 12.8479 0.534508 11.0537 0.177671C9.2595 -0.179165 7.39977 0.00407048 5.70969 0.704209C4.01961 1.40435 2.57508 2.58994 1.55877 4.11108C0.542453 5.63221 0 7.42056 0 9.25C0 11.0794 0.542453 12.8678 1.55877 14.3889C2.57508 15.9101 4.01961 17.0957 5.70969 17.7958C7.39977 18.4959 9.2595 18.6792 11.0537 18.3223C12.8479 17.9655 14.496 17.0846 15.7897 15.7911C16.4194 15.1592 16.9555 14.4406 17.3819 13.657C17.6703 13.129 17.9049 12.5734 18.0822 11.9986C18.6393 10.2085 18.6393 8.29147 18.0822 6.50143ZM1.3207 9.25C1.3207 7.14721 2.15599 5.13055 3.64281 3.64366C5.12964 2.15676 7.14621 1.32143 9.24889 1.32143V17.1786C7.14621 17.1786 5.12964 16.3432 3.64281 14.8563C2.15599 13.3694 1.3207 11.3528 1.3207 9.25Z" fill="#747474"/>
</svg>
