<svg width="8" height="8" viewBox="0 0 8 8" fill="none" xmlns="http://www.w3.org/2000/svg">
<path d="M0.44072 8C0.379816 7.99989 0.319601 7.98711 0.263903 7.96247C0.208206 7.93782 0.158244 7.90185 0.117195 7.85685C0.0754039 7.81223 0.0435145 7.75928 0.023618 7.70146C0.00372156 7.64365 -0.00373249 7.58228 0.00174453 7.52138L0.109293 6.33846L5.07762 1.37054L6.63027 2.92318L1.66327 7.89066L0.480667 7.99824C0.467387 7.99946 0.454056 8.00005 0.44072 8ZM6.94019 2.61274L5.38797 1.0601L6.31904 0.128781C6.35981 0.0879553 6.40822 0.055568 6.46151 0.0334709C6.5148 0.0113737 6.57192 0 6.62961 0C6.6873 0 6.74442 0.0113737 6.79771 0.0334709C6.851 0.055568 6.89942 0.0879553 6.94019 0.128781L7.87125 1.0601C7.91207 1.10088 7.94445 1.14931 7.96654 1.20261C7.98863 1.25592 8 1.31306 8 1.37076C8 1.42846 7.98863 1.4856 7.96654 1.53891C7.94445 1.59221 7.91207 1.64064 7.87125 1.68142L6.94063 2.6123L6.94019 2.61274Z" fill="#FF7272"/>
</svg>
