<svg width="57" height="23" viewBox="0 0 57 23" fill="none" xmlns="http://www.w3.org/2000/svg">
<path d="M0.715523 22.06L0.0775231 18.98C1.11886 18.848 2.02819 18.6867 2.80552 18.496C3.58286 18.32 4.23552 18.0707 4.76352 17.748C5.29152 17.4253 5.68752 16.9853 5.95152 16.428C6.21552 15.856 6.34752 15.1227 6.34752 14.228C6.34752 13.3627 6.21552 12.6733 5.95152 12.16C5.68752 11.6467 5.33552 11.39 4.89552 11.39C4.58752 11.39 4.33086 11.5 4.12552 11.72C3.92019 11.9253 3.76619 12.1747 3.66352 12.468C3.57552 12.7467 3.53152 12.996 3.53152 13.216C3.53152 13.348 3.56819 13.4873 3.64152 13.634C3.71486 13.7807 3.87619 13.9053 4.12552 14.008C4.37486 14.1107 4.76352 14.1693 5.29152 14.184C5.83419 14.1987 6.56752 14.1473 7.49152 14.03H11.1875C11.7449 14.03 12.1409 14.1767 12.3755 14.47C12.6249 14.7487 12.7495 15.1007 12.7495 15.526C12.7495 15.9807 12.5955 16.362 12.2875 16.67C11.9795 16.9633 11.5395 17.11 10.9675 17.11H4.91752C3.99352 17.11 3.20152 17 2.54152 16.78C1.88152 16.56 1.37552 16.208 1.02352 15.724C0.671523 15.2253 0.495523 14.5653 0.495523 13.744C0.495523 13.084 0.605523 12.424 0.825523 11.764C1.06019 11.104 1.38286 10.5027 1.79352 9.96C2.20419 9.40267 2.68086 8.96267 3.22352 8.64C3.78086 8.30267 4.38219 8.134 5.02752 8.134C5.90752 8.134 6.67752 8.40533 7.33752 8.948C7.99752 9.49067 8.51086 10.2093 8.87752 11.104C9.25886 11.9987 9.44952 12.974 9.44952 14.03C9.44952 15.6873 9.09752 17.0953 8.39352 18.254C7.68952 19.4127 6.68486 20.3073 5.37952 20.938C4.07419 21.5833 2.51952 21.9573 0.715523 22.06ZM10.6986 17.11L10.9186 14.03H17.2546C17.812 14.03 18.208 14.1767 18.4426 14.47C18.692 14.7487 18.8166 15.1007 18.8166 15.526C18.8166 15.9807 18.6626 16.362 18.3546 16.67C18.0466 16.9633 17.6066 17.11 17.0346 17.11H10.6986ZM16.758 17.11L16.978 14.03C17.3447 14.03 17.6233 13.9567 17.814 13.81C18.0047 13.6633 18.1953 13.4067 18.386 13.04C18.5767 12.6733 18.8407 12.1747 19.178 11.544C19.5447 10.84 19.926 10.2533 20.322 9.784C20.718 9.3 21.114 8.91867 21.51 8.64C21.9207 8.34667 22.324 8.14133 22.72 8.024C23.1307 7.892 23.534 7.826 23.93 7.826C24.4727 7.826 24.9787 7.94333 25.448 8.178C25.932 8.398 26.394 8.78667 26.834 9.344C27.274 9.88667 27.692 10.6347 28.088 11.588C28.3667 12.248 28.6453 12.754 28.924 13.106C29.2027 13.458 29.4887 13.7 29.782 13.832C30.09 13.964 30.398 14.03 30.706 14.03C31.2633 14.03 31.6593 14.1767 31.894 14.47C32.1287 14.7487 32.246 15.1007 32.246 15.526C32.246 15.9807 32.092 16.362 31.784 16.67C31.476 16.9633 31.0433 17.11 30.486 17.11C29.7673 17.11 29.1147 16.9927 28.528 16.758C27.9413 16.5233 27.4793 16.1713 27.142 15.702L27.78 15.218C27.648 15.526 27.45 15.8487 27.186 16.186C26.9367 16.5233 26.6067 16.8093 26.196 17.044C25.8 17.2787 25.3233 17.396 24.766 17.396C24.3993 17.396 23.9667 17.3227 23.468 17.176C22.984 17.044 22.478 16.8167 21.95 16.494C21.4367 16.1567 20.96 15.702 20.52 15.13C20.2413 15.6433 19.9333 16.0467 19.596 16.34C19.2587 16.6187 18.8627 16.8167 18.408 16.934C17.9533 17.0513 17.4033 17.11 16.758 17.11ZM21.796 12.534C21.9427 12.754 22.1187 12.974 22.324 13.194C22.5293 13.414 22.7567 13.612 23.006 13.788C23.2553 13.9493 23.5193 14.0813 23.798 14.184C24.0913 14.2867 24.3773 14.338 24.656 14.338C24.9493 14.338 25.1913 14.228 25.382 14.008C25.5727 13.7733 25.58 13.4287 25.404 12.974C25.3307 12.7833 25.228 12.5707 25.096 12.336C24.9787 12.0867 24.8393 11.852 24.678 11.632C24.5313 11.412 24.3627 11.2287 24.172 11.082C23.996 10.9353 23.8127 10.862 23.622 10.862C23.4313 10.862 23.2333 10.9207 23.028 11.038C22.8227 11.1553 22.6173 11.3387 22.412 11.588C22.2067 11.8227 22.0013 12.138 21.796 12.534ZM30.1865 17.11L30.4065 14.03H36.7425C37.2999 14.03 37.6959 14.1767 37.9305 14.47C38.1799 14.7487 38.3045 15.1007 38.3045 15.526C38.3045 15.9807 38.1505 16.362 37.8425 16.67C37.5345 16.9633 37.0945 17.11 36.5225 17.11H30.1865ZM36.2459 17.11L36.4659 14.03C36.9939 14.03 37.4486 13.9787 37.8299 13.876C38.2112 13.7733 38.5339 13.568 38.7979 13.26C39.0619 12.9373 39.2819 12.468 39.4579 11.852C39.6486 11.236 39.8172 10.4147 39.9639 9.388L42.8459 9.872C42.8166 10.092 42.7726 10.3487 42.7139 10.642C42.6699 10.9353 42.6259 11.236 42.5819 11.544C42.5526 11.8373 42.5379 12.116 42.5379 12.38C42.5379 12.644 42.5892 12.8787 42.6919 13.084C42.7946 13.2893 42.9559 13.4653 43.1759 13.612C43.4106 13.744 43.7112 13.8467 44.0779 13.92C44.4592 13.9933 44.9212 14.03 45.4639 14.03C46.0212 14.03 46.4172 14.1767 46.6519 14.47C46.8866 14.7487 47.0039 15.1007 47.0039 15.526C47.0039 15.9807 46.8499 16.362 46.5419 16.67C46.2486 16.9633 45.8159 17.11 45.2439 17.11C44.5839 17.11 43.9826 17.0587 43.4399 16.956C42.9119 16.8533 42.4499 16.6847 42.0539 16.45C41.6726 16.2007 41.3572 15.878 41.1079 15.482C40.8732 15.0713 40.7266 14.5727 40.6679 13.986H41.7239C41.4599 14.69 41.1226 15.2547 40.7119 15.68C40.3159 16.0907 39.8686 16.3987 39.3699 16.604C38.8712 16.8093 38.3506 16.9413 37.8079 17C37.2799 17.0733 36.7592 17.11 36.2459 17.11ZM42.3839 22.214C41.9586 22.214 41.5919 22.06 41.2839 21.752C40.9906 21.4587 40.8439 21.1067 40.8439 20.696C40.8439 20.2707 40.9906 19.904 41.2839 19.596C41.5919 19.288 41.9586 19.134 42.3839 19.134C42.7946 19.134 43.1466 19.288 43.4399 19.596C43.7332 19.904 43.8799 20.2707 43.8799 20.696C43.8799 21.1067 43.7332 21.4587 43.4399 21.752C43.1466 22.06 42.7946 22.214 42.3839 22.214ZM38.5779 22.214C38.1526 22.214 37.7859 22.06 37.4779 21.752C37.1846 21.4587 37.0379 21.1067 37.0379 20.696C37.0379 20.2707 37.1846 19.904 37.4779 19.596C37.7859 19.288 38.1526 19.134 38.5779 19.134C38.9886 19.134 39.3406 19.288 39.6339 19.596C39.9272 19.904 40.0739 20.2707 40.0739 20.696C40.0739 21.1067 39.9272 21.4587 39.6339 21.752C39.3406 22.06 38.9886 22.214 38.5779 22.214ZM44.9479 17.11L45.1679 14.03H51.5039C52.0612 14.03 52.4572 14.1767 52.6919 14.47C52.9412 14.7487 53.0659 15.1007 53.0659 15.526C53.0659 15.9807 52.9119 16.362 52.6039 16.67C52.2959 16.9633 51.8559 17.11 51.2839 17.11H44.9479ZM51.0072 17.11L51.2272 14.03C51.9019 14.03 52.3859 13.964 52.6792 13.832C52.9726 13.6853 53.1486 13.4213 53.2072 13.04C53.2659 12.644 53.2806 12.072 53.2512 11.324L52.8552 0.895999H55.9572L56.3972 11.544C56.4266 12.3947 56.3899 13.1647 56.2872 13.854C56.1992 14.5287 55.9719 15.108 55.6052 15.592C55.2532 16.076 54.7032 16.45 53.9552 16.714C53.2219 16.978 52.2392 17.11 51.0072 17.11Z" fill="#FFD400"/>
</svg>
